<svg version="1.1" xmlns="http://www.w3.org/2000/svg" xmlns:xlink="http://www.w3.org/1999/xlink" width="42" height="42" viewBox="0,0,42,42"><g transform="translate(-219,-159)"><g data-paper-data="{&quot;isPaintingLayer&quot;:true}" fill-rule="nonzero" stroke="#000000" stroke-width="2" stroke-linejoin="miter" stroke-miterlimit="10" stroke-dasharray="" stroke-dashoffset="0" style="mix-blend-mode: normal"><path d="M220,200v-40h40v40z" fill="#903800" stroke-linecap="butt"/><g><path d="M247.55654,172.83333c4.05009,0 7.33334,3.28324 7.33334,7.33334c0,4.05009 -3.28324,7.33334 -7.33334,7.33334c-1.38342,0 -1.38342,-14.66667 0,-14.66667z" fill="#903800" stroke-linecap="butt"/><path d="M242.55654,191.16667v-22.33334l4.66666,3.66667v15z" fill="#903800" stroke-linecap="butt"/><path d="M234.9617,172.16667c0,0 3.70345,3.57002 3.61392,7.34339c-0.09472,3.99208 -4.16752,6.98994 -4.16752,6.98994" fill="none" stroke-linecap="round"/><path d="M229.70258,170.16667c0,0 4.15194,5.63934 4.15194,9c0,3.41621 -4.42873,10 -4.42873,10" fill="none" stroke-linecap="round"/><path d="M225.11013,168.83334c0,0 4.53492,5.98777 4.44564,10.34206c-0.09491,4.62891 -3.99923,11.65794 -3.99923,11.65794" fill="none" stroke-linecap="round"/></g></g></g></svg>