<svg version="1.1" xmlns="http://www.w3.org/2000/svg" xmlns:xlink="http://www.w3.org/1999/xlink" width="603.46641" height="420.99999" viewBox="0,0,603.46641,420.99999"><g transform="translate(82.23201,10.49999)"><g data-paper-data="{&quot;isPaintingLayer&quot;:true}" fill-rule="nonzero" stroke-linecap="butt" stroke-linejoin="miter" stroke-miterlimit="10" stroke-dasharray="" stroke-dashoffset="0" style="mix-blend-mode: normal"><path d="M-25.7656,401.47728v-410.97727h535v410.97728z" fill="#66c0ff" stroke="#000000" stroke-width="2"/><path d="M-46.7656,409.5v-340h567v340z" fill="#946d48" stroke="#000000" stroke-width="2"/><path d="M-37.7656,82.5v-33h526v33c0,0 -26.85565,0 -68,0c-6.34247,0 -12.02448,14 -19,14c-4.54624,0 -10.21716,-14 -15,-14c-44.13945,0 -97.81169,0 -151,0c-6.34589,0 -11.6849,13 -18,13c-5.69022,0 -12.36103,-13 -18,-13c-63.15701,0 -122.31871,0 -160,0c-5.47058,0 -9.48842,16 -14,16c-5.43156,0 -11.12934,-16 -15,-16c-24.2997,0 -48,0 -48,0z" fill="#00c704" stroke="#000000" stroke-width="2"/><text transform="translate(172.23438,35.5) scale(0.54333,0.76002)" font-size="40" xml:space="preserve" fill="#080a00" fill-rule="nonzero" stroke="none" stroke-width="1" stroke-linecap="butt" stroke-linejoin="miter" stroke-miterlimit="10" stroke-dasharray="" stroke-dashoffset="0" font-family="Sans Serif" font-weight="normal" text-anchor="start" style="mix-blend-mode: normal"><tspan x="0" dy="0">Создатели</tspan></text><path d="M-81.23201,323.87388v-147.14715h201.2012v147.14715z" fill="#8e8e8e" stroke="#000000" stroke-width="2"/><path d="M-4.65543,190.24025v-37.53753h39.03904v37.53753z" fill="#747474" stroke="#000000" stroke-width="2"/><path d="M89.93916,202.25226v-45.04504h43.54355v45.04504z" fill="#747474" stroke="#000000" stroke-width="2"/><path d="M26.8761,200.75076v-39.03904h31.53153v39.03904z" fill="#747474" stroke="#000000" stroke-width="2"/><g stroke="#000000" stroke-width="2"><path d="M107.97058,249.45501l-14.33378,-24.40516l7.14297,-4.19525l14.33378,24.40516z" fill="#61451e"/><path d="M93.52026,224.85143l-5.24407,-8.92872l7.14297,-4.19525l5.24407,8.92872z" fill="#ca7729"/></g><path d="M52.40163,196.24625v-27.02703h39.03904v27.02703z" fill="#747474" stroke="#000000" stroke-width="2"/><path d="M107.95718,281.83184v-88.58859h34.53454v88.58859z" fill="#747474" stroke="#000000" stroke-width="2"/><path d="M91.44067,310.36037v-39.03904h49.54955v39.03904z" fill="#747474" stroke="#000000" stroke-width="2"/><path d="M73.42265,331.38139v-33.03303h51.05105v33.03303z" fill="#747474" stroke="#000000" stroke-width="2"/><path d="M-1.65243,335.88589v-28.52853h42.04205v28.52853z" fill="#747474" stroke="#000000" stroke-width="2"/><path d="M32.88211,329.87989v-39.03904h45.04504v39.03904z" fill="#747474" stroke="#000000" stroke-width="2"/><path d="M38.50236,303.8079v-8.4h14v8.4z" fill="#cda746" stroke="#000000" stroke-width="2"/><path d="M41.50236,319.5079v-8h16v8z" fill="#cda746" stroke="#000000" stroke-width="2"/><path d="M64.50237,311.5079v-7h8v7z" fill="#cda746" stroke="#000000" stroke-width="2"/><path d="M58.50237,184.5079v-8h8v8z" fill="#252525" stroke="#000000" stroke-width="2"/><path d="M72.50237,192.5079v-7h11v7z" fill="#252525" stroke="#000000" stroke-width="2"/><path d="M80.50237,177.5079v-5h5v5z" fill="#252525" stroke="#000000" stroke-width="2"/><text transform="translate(106.61057,152.50001) scale(0.5,0.5)" font-size="40" xml:space="preserve" fill="#000000" fill-rule="nonzero" stroke="none" stroke-width="1" stroke-linecap="butt" stroke-linejoin="miter" stroke-miterlimit="10" stroke-dasharray="" stroke-dashoffset="0" font-family="Sans Serif" font-weight="normal" text-anchor="start" style="mix-blend-mode: normal"><tspan x="0" dy="0">Дизайн и программирование:</tspan><tspan x="0" dy="46.150000000000006px">      Неупокоев Антон и Пушилин Глеб</tspan></text><text transform="translate(145.34378,218.50001) scale(0.5,0.5)" font-size="40" xml:space="preserve" fill="#000000" fill-rule="nonzero" stroke="none" stroke-width="1" stroke-linecap="butt" stroke-linejoin="miter" stroke-miterlimit="10" stroke-dasharray="" stroke-dashoffset="0" font-family="Sans Serif" font-weight="normal" text-anchor="start" style="mix-blend-mode: normal"><tspan x="0" dy="0">Тестер: Неупокоев Егор</tspan></text><text transform="translate(146.34378,250.50001) scale(0.5,0.5)" font-size="40" xml:space="preserve" fill="#000000" fill-rule="nonzero" stroke="none" stroke-width="1" stroke-linecap="butt" stroke-linejoin="miter" stroke-miterlimit="10" stroke-dasharray="" stroke-dashoffset="0" font-family="Sans Serif" font-weight="normal" text-anchor="start" style="mix-blend-mode: normal"><tspan x="0" dy="0">Музыка и звуки: zvukipro</tspan></text></g></g></svg>