<svg version="1.1" xmlns="http://www.w3.org/2000/svg" xmlns:xlink="http://www.w3.org/1999/xlink" width="133.10395" height="182.20653" viewBox="0,0,133.10395,182.20653"><g transform="translate(-186.06406,-88.57609)"><g data-paper-data="{&quot;isPaintingLayer&quot;:true}" fill-rule="nonzero" stroke="#000000" stroke-width="2" stroke-linejoin="miter" stroke-miterlimit="10" stroke-dasharray="" stroke-dashoffset="0" style="mix-blend-mode: normal"><g><path d="M213.08527,269.78262v-59h17.31522v59z" fill="#c5c5c5" stroke-linecap="butt"/><path d="M250.79179,269.01088v-59h17.31522v59z" fill="#c5c5c5" stroke-linecap="butt"/><path d="M230.40049,194.75001v-64.77174h19.23913v64.77174z" fill="#c5c5c5" stroke-linecap="butt"/><path d="M212.44396,212.70653v-21.16304h55.79348v21.16304z" fill="#c5c5c5" stroke-linecap="butt"/><path d="M220.13962,169.09783v-10.26087h39.76087v10.26087z" fill="#c5c5c5" stroke-linecap="butt"/><path d="M218.85701,132.54348v-42.96739h42.96739v42.96739z" fill="#c5c5c5" stroke-linecap="butt"/><path d="M187.30307,191.78583l15.80197,-53.39751l11.39286,3.53239l-15.80197,53.39751z" fill="#c5c5c5" stroke-linecap="butt"/><path d="M227.19395,110.73914v-5.13044h9.61957v5.13044z" fill="#252525" stroke-linecap="butt"/><path d="M243.22656,110.77922v-5.21059h8.33696v5.21059z" fill="#252525" stroke-linecap="butt"/><path d="M234.88961,120.3587v-3.84782h8.97826v3.84783z" fill="#252525" stroke-linecap="butt"/><path d="M228.47656,126.77175v-3.84783h21.80435v3.84783z" fill="#252525" stroke-linecap="butt"/><path d="M258.39516,192.37564c0,0 33.11256,-3.11552 42.35735,-11.46414c8.45313,-7.63369 10.94934,-36.67507 10.94934,-36.67507l6.44722,7.13929c0,0 -1.45582,29.83004 -10.08971,37.62697c-9.1095,8.22643 -43.21698,10.51224 -43.21698,10.51224z" fill="#61451e" stroke-linecap="butt"/><path d="M301.09323,188.71701l-36.13659,-42.50951l9.28368,-7.8919l36.13659,42.50951z" fill="#c5c5c5" stroke-linecap="butt"/><path d="M202.8244,151.14131v-12.82609h71.82609v12.82609z" fill="#c5c5c5" stroke-linecap="butt"/><path d="M311.74799,143.33067l-53.73651,47.66325" fill="none" stroke-linecap="round"/></g></g></g></svg>