<svg version="1.1" xmlns="http://www.w3.org/2000/svg" xmlns:xlink="http://www.w3.org/1999/xlink" width="96" height="179.30831" viewBox="0,0,96,179.30831"><g transform="translate(-192,-90.19169)"><g data-paper-data="{&quot;isPaintingLayer&quot;:true}" fill-rule="nonzero" stroke="#000000" stroke-width="2" stroke-linecap="butt" stroke-linejoin="miter" stroke-miterlimit="10" stroke-dasharray="" stroke-dashoffset="0" style="mix-blend-mode: normal"><path d="M251,268.5v-30h36v30z" data-paper-data="{&quot;index&quot;:null}" fill="#00d20d"/><path d="M193,268.5v-30h36v30z" data-paper-data="{&quot;index&quot;:null}" fill="#00d20d"/><g data-paper-data="{&quot;index&quot;:null}"><path d="M216.62117,250.53013l2.72827,-103.96421l49.98279,1.31167l-2.72827,103.96421z" fill="#00d20d"/><path d="M204.90829,163.1928l1.88881,-71.97522l79.97247,2.09867l-1.88881,71.97522z" fill="#00d20d"/><path d="M252.62376,127.01542l0.37164,-14.16179l21.24269,0.55746l-0.37164,14.16179z" fill="#000000"/><path d="M216.90137,125.49445l0.36727,-13.99518l21.99243,0.57713l-0.36727,13.99518z" fill="#000000"/><path d="M236.57969,138.01498l0.3148,-11.99587l16.99415,0.44597l-0.3148,11.99587z" fill="#000000"/><path d="M228.29387,148.80133l0.34103,-12.99553l36.98727,0.97064l-0.34103,12.99553z" fill="#000000"/><path d="M253.0754,157.45441l0.26233,-9.99656l11.99587,0.3148l-0.26233,9.99656z" fill="#000000"/><path d="M228.45718,156.8732l0.18703,-7.12718l11.24613,0.29513l-0.18703,7.12718z" fill="#000000"/></g></g></g></svg>