<svg version="1.1" xmlns="http://www.w3.org/2000/svg" xmlns:xlink="http://www.w3.org/1999/xlink" width="96" height="179.30831" viewBox="0,0,96,179.30831"><g transform="translate(-192,-90.19169)"><g data-paper-data="{&quot;isPaintingLayer&quot;:true}" fill-rule="nonzero" stroke="#000000" stroke-width="2" stroke-linecap="butt" stroke-linejoin="miter" stroke-miterlimit="10" stroke-dasharray="" stroke-dashoffset="0" style="mix-blend-mode: normal"><path d="M193,268.5v-30h36v30z" data-paper-data="{&quot;index&quot;:null}" fill="#00d20d"/><path d="M251,268.5v-30h36v30z" data-paper-data="{&quot;index&quot;:null}" fill="#00d20d"/><g data-paper-data="{&quot;index&quot;:null}"><path d="M213.39604,251.8418l-2.72827,-103.96421l49.98279,-1.31167l2.72827,103.96421z" fill="#00d20d"/><path d="M195.11924,165.29147l-1.88881,-71.97522l79.97247,-2.09867l1.88881,71.97522z" fill="#00d20d"/><path d="M206.13355,127.57288l-0.37164,-14.16179l21.24269,-0.55746l0.37164,14.16179z" fill="#000000"/><path d="M241.1062,126.07158l-0.36727,-13.99518l21.99243,-0.57713l0.36727,13.99518z" fill="#000000"/><path d="M226.42616,138.46095l-0.3148,-11.99587l16.99415,-0.44597l0.3148,11.99587z" fill="#000000"/><path d="M214.71886,149.77197l-0.34103,-12.99553l36.98727,-0.97064l0.34103,12.99553z" fill="#000000"/><path d="M214.92873,157.76921l-0.26233,-9.99656l11.99587,-0.3148l0.26233,9.99656z" fill="#000000"/><path d="M240.29669,157.16833l-0.18703,-7.12718l11.24613,-0.29513l0.18703,7.12718z" fill="#000000"/></g></g></g></svg>