<svg version="1.1" xmlns="http://www.w3.org/2000/svg" xmlns:xlink="http://www.w3.org/1999/xlink" width="528.99999" height="383" viewBox="0,0,528.99999,383"><g transform="translate(25.76559,11.5)"><g data-paper-data="{&quot;isPaintingLayer&quot;:true}" fill-rule="nonzero" stroke-linecap="butt" stroke-linejoin="miter" stroke-miterlimit="10" stroke-dasharray="" stroke-dashoffset="0" style="mix-blend-mode: normal"><path d="M-20.76559,371.5v-383h516v383z" fill="#66c0ff" stroke="none" stroke-width="0"/><path d="M-18.7656,363.5v-49h521v49z" fill="#946d48" stroke="#000000" stroke-width="2"/><path d="M-24.76559,317.5v-28h522v28c0,0 -27.62421,0 -63.00001,0c-5.50398,0 -11.19559,11 -17,11c-6.88299,0 -13.92459,-11 -21,-11c-26.3456,0 -53.15996,0 -74,0c-6.26493,0 -11.98994,11 -17,11c-9.92856,0 -17.04933,-11 -20,-11c-32.51417,0 -65.67282,0 -97,0c-4.37123,0 -9.70681,10 -14,10c-5.06262,0 -9.06629,-10 -14,-10c-31.92616,0 -60.92241,0 -84,0c-6.88691,0 -13.24672,13 -19,13c-7.39023,0 -13.77968,-13 -19,-13c-30.64621,0 -62.99999,0 -62.99999,0z" fill="#00c704" stroke="#000000" stroke-width="2"/><path d="M18.23439,60.5v-42h42v42z" fill="#fff100" stroke="#000000" stroke-width="2"/><path d="M303.23438,289v-131h32v131z" fill="#61451e" stroke="#000000" stroke-width="2"/><path d="M260.23438,167v-49l26,1l0,-49l63,-1l2,49l30,1v48z" fill="#00bb34" stroke="#000000" stroke-width="2"/></g></g></svg>