<svg version="1.1" xmlns="http://www.w3.org/2000/svg" xmlns:xlink="http://www.w3.org/1999/xlink" width="96" height="177.6966" viewBox="0,0,96,177.6966"><g transform="translate(-192,-91.80341)"><g data-paper-data="{&quot;isPaintingLayer&quot;:true}" fill-rule="nonzero" stroke="#000000" stroke-width="2" stroke-linecap="butt" stroke-linejoin="miter" stroke-miterlimit="10" stroke-dasharray="" stroke-dashoffset="0" style="mix-blend-mode: normal"><path d="M251,268.5v-30h36v30z" data-paper-data="{&quot;index&quot;:null}" fill="#00d20d"/><path d="M193,268.5v-30h36v30z" data-paper-data="{&quot;index&quot;:null}" fill="#00d20d"/><g data-paper-data="{&quot;index&quot;:null}"><path d="M214.42989,251.98369l-0.28074,-103.99962l49.99982,-0.13497l0.28074,103.99962z" fill="#00d20d"/><path d="M200.19509,165.02179l-0.19435,-71.99974l79.99971,-0.21595l0.19435,71.99974z" fill="#00d20d"/><path d="M246.84391,127.47906l-0.03824,-14.16661l21.24993,-0.05736l0.03824,14.16661z" fill="#000000"/><path d="M211.09247,126.99224l-0.03779,-13.99995l21.99992,-0.05939l0.03779,13.99995z" fill="#000000"/><path d="M231.1248,138.9382l-0.03239,-11.99996l16.99994,-0.04589l0.03239,11.99996z" fill="#000000"/><path d="M223.15451,149.95976l-0.0351,-12.99996l36.99987,-0.09987l0.0351,12.99996z" fill="#000000"/><path d="M248.17602,157.89224l-0.027,-9.99996l11.99996,-0.03239l0.027,9.99996z" fill="#000000"/><path d="M223.55129,158.02353l-0.01925,-7.12961l11.24996,-0.03036l0.01925,7.12961z" fill="#000000"/></g></g></g></svg>