<svg version="1.1" xmlns="http://www.w3.org/2000/svg" xmlns:xlink="http://www.w3.org/1999/xlink" width="565.00001" height="410" viewBox="0,0,565.00001,410"><g transform="translate(59.46755,22.99999)"><g data-paper-data="{&quot;isPaintingLayer&quot;:true}" fill-rule="nonzero" stroke-linecap="butt" stroke-linejoin="miter" stroke-miterlimit="10" stroke-dasharray="" stroke-dashoffset="0" style="mix-blend-mode: normal"><path d="M-20.76559,180h516z" fill="#66c0ff" stroke="none" stroke-width="0"/><path d="" fill="#00c704" stroke="#000000" stroke-width="2"/><path d="" fill="#fff100" stroke="#000000" stroke-width="2"/><path d="" fill="#61451e" stroke="#000000" stroke-width="2"/><path d="" fill="#00bb34" stroke="#000000" stroke-width="2"/><path d="M-5.49697,364.40865v-367.40864h492.02941v367.40864z" fill="#8e8e8e" stroke="#000000" stroke-width="2"/><path d="M-39.46755,59.00001v-73h95v73z" fill="#747474" stroke="#000000" stroke-width="2"/><path d="M-19.46755,111.00001v-70h46v70z" fill="#747474" stroke="#000000" stroke-width="2"/><path d="M-45.46755,138.00001v-44h90v44z" fill="#747474" stroke="#000000" stroke-width="2"/><path d="M-58.46755,175.00001v-47h74v47z" fill="#747474" stroke="#000000" stroke-width="2"/><path d="M-31.46755,249.00001v-88h70v88z" fill="#747474" stroke="#000000" stroke-width="2"/><path d="M-17.46755,297.00001v-65h33v65z" fill="#747474" stroke="#000000" stroke-width="2"/><path d="M-34.46755,382.00001v-54h67v54z" fill="#747474" stroke="#000000" stroke-width="2"/><path d="M-19.46755,339.00001v-59h31v59z" fill="#747474" stroke="#000000" stroke-width="2"/><path d="M451.53248,386.00001v-53h42v53z" fill="#747474" stroke="#000000" stroke-width="2"/><path d="M377.53247,369.00001v-50.27586h81v50.27586z" fill="#747474" stroke="#000000" stroke-width="2"/><path d="M466.53246,340.00001v-77h23v77z" fill="#747474" stroke="#000000" stroke-width="2"/><path d="M443.53248,268.00001v-67h59v67z" fill="#747474" stroke="#000000" stroke-width="2"/><path d="M456.53246,208.00001v-61h38v61z" fill="#747474" stroke="#000000" stroke-width="2"/><path d="M441.53248,39.00001v-56h47v56z" fill="#747474" stroke="#000000" stroke-width="2"/><path d="M469.53246,75.00001v-47h35v47z" fill="#747474" stroke="#000000" stroke-width="2"/><path d="M457.53246,119.00001v-53h27v53z" fill="#747474" stroke="#000000" stroke-width="2"/><path d="M447.53248,153.00001v-43h37v43z" fill="#747474" stroke="#000000" stroke-width="2"/><path d="M12.53245,379.00001v-30h66v30z" fill="#747474" stroke="#000000" stroke-width="2"/><path d="M111.53246,373.00001v-31h53v31z" fill="#747474" stroke="#000000" stroke-width="2"/><path d="M226.53246,374.00001v-26h48v26z" fill="#747474" stroke="#000000" stroke-width="2"/><path d="M69.53246,380.00001v-35h52v35z" fill="#747474" stroke="#000000" stroke-width="2"/><path d="M159.53246,378.00001v-25h39v25z" fill="#747474" stroke="#000000" stroke-width="2"/><path d="M187.53246,368.00001v-42h47v42z" fill="#747474" stroke="#000000" stroke-width="2"/><path d="M261.53245,369.00001v-39h77v39z" fill="#747474" stroke="#000000" stroke-width="2"/><path d="M329.53245,379.00001v-36h63v36z" fill="#747474" stroke="#000000" stroke-width="2"/><path d="M50.53246,11.00001v-33h92v33z" fill="#747474" stroke="#000000" stroke-width="2"/><path d="M216.53246,10.00001v-31h47v31z" fill="#747474" stroke="#000000" stroke-width="2"/><path d="M130.53246,26.00001v-41h28v41z" fill="#747474" stroke="#000000" stroke-width="2"/><path d="M148.53246,9.00001v-21h75v21z" fill="#747474" stroke="#000000" stroke-width="2"/><path d="M255.53246,16.00001v-31h118v31z" fill="#747474" stroke="#000000" stroke-width="2"/><path d="M352.53248,9.00001v-22h55v22z" fill="#747474" stroke="#000000" stroke-width="2"/><path d="M6.53245,187.00001v-10h14v10z" fill="#cda746" stroke="#000000" stroke-width="2"/><path d="M10.53245,204.00001v-9h21v9z" fill="#cda746" stroke="#000000" stroke-width="2"/><path d="M-13.46755,220.00001v-10h25v10z" fill="#cda746" stroke="#000000" stroke-width="2"/><path d="M21.53246,172.00001v-6h7v6z" fill="#cda746" stroke="#000000" stroke-width="2"/><path d="M456.03246,236.16668v-8.33333h17.5v8.33333z" fill="#00d7ef" stroke="#000000" stroke-width="2"/><path d="M447.53248,222.00001v-8h13v8z" fill="#00d7ef" stroke="#000000" stroke-width="2"/><path d="M466.53246,255.00001v-8h7v8z" fill="#00d7ef" stroke="#000000" stroke-width="2"/><path d="M448.53248,258.00001v-10h11v10z" fill="#00d7ef" stroke="#000000" stroke-width="2"/><path d="M441.86578,13.00001v-7h13.33333v7z" fill="#f00000" stroke="#000000" stroke-width="2"/><path d="M460.53246,21.00001v-8h12v8z" fill="#f00000" stroke="#000000" stroke-width="2"/><path d="M448.53248,30.00001v-6h10v6z" fill="#f00000" stroke="#000000" stroke-width="2"/><path d="M404.53248,18.00001v-39h43v39z" fill="#747474" stroke="#000000" stroke-width="2"/><path d="M194.53246,340.00001v-8h10v8z" fill="#cc7245" stroke="#000000" stroke-width="2"/><path d="M214.53246,348.00001v-6h9v6z" fill="#cc7245" stroke="#000000" stroke-width="2"/><path d="M196.53246,355.00001v-9h10v9z" fill="#cc7245" stroke="#000000" stroke-width="2"/><path d="M199.53246,342.00001v-5h6v5z" fill="#66be54" stroke="#000000" stroke-width="2"/><path d="M219.53246,344.00001v-5h6v5z" fill="#66be54" stroke="#000000" stroke-width="2"/><path d="M192.53246,351.00001v-6h8v6z" fill="#66be54" stroke="#000000" stroke-width="2"/><path d="M279.53245,348.00001v-9h13v9z" fill="#0074de" stroke="#000000" stroke-width="2"/><path d="M300.53245,351.00001v-7h13v7z" fill="#0074de" stroke="#000000" stroke-width="2"/><path d="M313.53245,341.00001v-8h8v8z" fill="#0074de" stroke="#000000" stroke-width="2"/><text transform="translate(58.23439,47.81998) scale(0.55258,0.55258)" font-size="40" xml:space="preserve" fill="#000000" fill-rule="nonzero" stroke="none" stroke-width="1" stroke-linecap="butt" stroke-linejoin="miter" stroke-miterlimit="10" stroke-dasharray="" stroke-dashoffset="0" font-family="Sans Serif" font-weight="normal" text-anchor="start" style="mix-blend-mode: normal"><tspan x="0" dy="0">Счёт:</tspan></text></g></g></svg>